<svg id="Layer_1" data-name="Layer 1" xmlns="http://www.w3.org/2000/svg" viewBox="0 0 1600 900"><defs><style>.cls-1{fill:#ebf3fa;}</style></defs><path class="cls-1" d="M-27.5,325.5C16.34,244,104.67,188.39,193.31,161.72s183-27.39,275.33-21c79,5.5,159.79,15.91,236.18-4.85,55.37-15,105.12-45.7,158.75-66.13,217.63-82.95,466.33,10.49,693-43,47.72-11.26,101.67-38.51,106-87.35,2.66-30.16-16.16-59-40.92-76.47s-54.76-25.45-84.22-32.47c-180.1-42.9-365.19-60-549.55-76.93-233-21.43-466.8-42.88-700.7-35.28-105.53,3.43-218.89,16-298.13,85.79-91.65,80.7-112,217.09-96.72,338.25C-99.15,210.05-78.8,281-27,325.47"/><path class="cls-1" d="M-38,747.91c45.43-42.76,94.45-85.58,154.7-101.74,67.35-18.06,138.41-.27,206.44,15.06C424.82,684.15,528.68,701.67,632.78,697c232.2-10.45,453.42-130.4,685.29-114.15,55.85,3.92,110.89,15.76,164.87,30.64,42,11.6,84.41,25.49,119.4,51.51,44.54,33.12,74.3,85.6,79.22,140.88s-15.27,112.45-54.29,151.92c-28.66,29-65.94,48-104,62.74-87.71,34.06-182,48.08-275.76,55.49-165.83,13.11-332.51,6.34-498.72-.44-146.15-6-292.72-12-437.1-35.45-109.54-17.81-221.06-47.41-308-116.4-12.67-10.05-24.83-21-34.3-34.11-29-40.13-38.16-103.7-6.95-142.12"/></svg>