<svg id="Layer_1" data-name="Layer 1" xmlns="http://www.w3.org/2000/svg" xmlns:xlink="http://www.w3.org/1999/xlink" viewBox="0 0 1055.45 378.54"><defs><style>.cls-1{fill:none;}.cls-2{clip-path:url(#clip-path);}.cls-3{fill:#083782;}.cls-4{isolation:isolate;}.cls-5{fill:#17367e;}</style><clipPath id="clip-path" transform="translate(-15.76 -14.35)"><rect class="cls-1" width="1087.75" height="331"/></clipPath></defs><g class="cls-2"><g class="cls-2"><path class="cls-3" d="M201.23,120.68a55,55,0,1,1-55-55.31,55.17,55.17,0,0,1,55,55.31" transform="translate(-15.76 -14.35)"/></g><g class="cls-2"><path class="cls-3" d="M181.29,298.1C243.08,192.22,357,95.76,503.31,30.31l-4.87-16C350.85,68.43,228.79,152.74,147.15,248.81c-18-26.59-52.95-66-82.19-65.69-17.38.16-36.71,2.22-49.2,17.35,40.65,5.79,96.3,78.73,107.11,115.21,28.81-8.83,58.42-17.58,58.42-17.58" transform="translate(-15.76 -14.35)"/></g><g class="cls-2"><path class="cls-3" d="M322.68,298.63v-8c7.64-.32,12.13-.81,13.44-1.5a4.57,4.57,0,0,0,2-2.47q1-2.26,1.31-15.94.54-22.65.54-34.17l-.19-39.93c0-10.57-.34-16.69-1-18.31a3.85,3.85,0,0,0-1.79-2.08q-1.87-1.14-14.25-2.18v-8q14.74.52,21.86.53,7.85,0,17.85-.53,21.84,27.83,49.4,60.39,18.35,21.78,31.65,36V225q0-21.28-.54-36.73-.39-9.17-1.51-11.26a3.27,3.27,0,0,0-2.07-1.6c-1-.32-5.39-.75-13.15-1.33v-8q10.24.52,20.41.53,13.9,0,25.19-.53v8q-10.44.67-12.59,1.51a4.85,4.85,0,0,0-1.95,1.32,5.38,5.38,0,0,0-1.12,2.17q-.66,2.28-.79,14.54l-.41,37.74-.18,38q0,15.3.72,30.57l-1.23,1.32c-7.64-1.39-13-2.29-16.2-2.74Q413.7,271.65,379.25,231q-17.42-20.56-28.11-34.63v36.71q0,15,.54,36.15c.18,10.37.63,16.36,1.32,17.93a2.86,2.86,0,0,0,1.41,1.6c1.19.69,5.73,1.32,13.59,1.88v8q-15.27-.69-21.86-.68c-3.64,0-11.46.25-23.46.71" transform="translate(-15.76 -14.35)"/></g><g class="cls-2"><path class="cls-3" d="M561.71,280.45l2.72,2.75-4.23,9a54.35,54.35,0,0,1-14.58,6.31,63.46,63.46,0,0,1-16.56,2.11q-20.56,0-32.4-12t-11.83-33.62q0-13.71,3.48-22.7a46.06,46.06,0,0,1,9.12-14.1c4.67-4.88,15.84-11.88,33.62-11.53,10.32.21,18.84,2.89,25.57,8.65s10.1,15.06,10.1,27.87q0,2.37-.41,7.2l-15.43,2.88q-7.15.49-20.69.48H509.77q1.41,16.31,9.71,24.55t21.11,8.24a36.92,36.92,0,0,0,10.63-1.56,46.54,46.54,0,0,0,10.49-4.6M509.25,243.7c5.63.55,11.26.81,16.91.81a155.42,155.42,0,0,0,15.6-.81l.09-4.44q0-11.59-4.23-16.94A13.87,13.87,0,0,0,526.15,217a15.08,15.08,0,0,0-8.73,2.5,14.9,14.9,0,0,0-5.46,7c-1.18,3-2.1,8.77-2.71,17.19" transform="translate(-15.76 -14.35)"/></g><g class="cls-2"><path class="cls-3" d="M576.32,222.6l12.54-8.17q-.21-16.69-.94-29.24a164.3,164.3,0,0,0,24.42-9.62l2.84,2.17q-2.07,13.68-2.84,36.69a55.77,55.77,0,0,0,8.6.68,110.81,110.81,0,0,0,17.27-1.21l.86.56-.86,3.38a88.33,88.33,0,0,0-2.07,9.69q-11.05-.81-16.25-.81a71.85,71.85,0,0,0-7.55.39c-.11,6.39-.18,12-.18,16.9q0,31.86,1.88,36.22t9,4.37a23.5,23.5,0,0,0,4.47-.48,47.9,47.9,0,0,0,5.15-1.33l1.59,3.6q-5.66,6.33-11.05,13.13c-2.33.38-4.46.66-6.42.86s-3.74.28-5.39.28a28.94,28.94,0,0,1-13.26-2.74,17.86,17.86,0,0,1-7.75-7.11q-2.42-4.35-2.41-13,0-4.53.47-23.87.47-17,.47-26.82l-4.8-.19a65.86,65.86,0,0,0-7.74.6Z" transform="translate(-15.76 -14.35)"/></g><g class="cls-2"><path class="cls-3" d="M644.67,298.63v-8l5.62-.37c4.55-.25,7.41-1.05,8.56-2.37s1.83-5.81,2-13.45q.68-23.28.68-50.43,0-14.43-.14-32.81-.13-11.1-1.27-13.57a4.27,4.27,0,0,0-2.07-2q-1.5-.73-13.4-1.6v-7.95c7.59.18,15,.27,22.31.27q12.69,0,24.47-.27,5.12,12,10.59,23.78,3.87,8.39,34.32,71.25,32.29-64.53,45.2-95c7.52.35,14.65.53,21.44.53,7.94,0,15.63-.18,23-.53v7.95c-8.24.51-12.92,1.23-14,2.16s-1.76,3.82-2.08,8.64q-.68,11.9-.67,45.24,0,16.8.33,35.5t1.29,21.12a4.77,4.77,0,0,0,1.88,2.15q1.22.74,13.23,1.76v8q-15.31-.69-27.31-.68t-32.87.68v-8l5.59-.19c4.42-.18,7.17-.79,8.28-1.83s1.8-3.77,2.11-8.2.48-14.89.48-31.36v-57Q767.7,221.27,745,268.61q-9.27,19.45-14.52,31.76h-6q-7.09-16.26-19-41.11l-32.69-67.2V204.9q0,53.25.54,73.34c.18,5.4.91,8.72,2.16,10s5.93,2.07,14,2.44v8c-6.41-.46-12.84-.68-19.24-.68q-14.36,0-25.57.7" transform="translate(-15.76 -14.35)"/></g><g class="cls-2"><path class="cls-3" d="M924.7,290.93v7.7l-7.31-.28c-3.86-.18-7.71-.27-11.57-.27q-8.91,0-16.87.55l-1-1,1-12.92L869.2,299.43a42.35,42.35,0,0,1-9.35,1.22q-10,0-15.48-6t-5.49-17.42q0-14.08,7.47-19.88,9.63-7.56,42.59-13.55c-.12-7.43-1.43-12.82-3.88-16.16q-5.22-6.88-16.1-6.9a23.53,23.53,0,0,0-5.25.61,27.1,27.1,0,0,0-5.46,1.94L854,233.46l-6.47-1.6.19-4.25-.09-4.15-.1-3.79q14.49-9,20.82-11.22,4.65-1.69,12.88-1.7,11.17,0,18.17,3.35a22.26,22.26,0,0,1,10.22,9.14q3.23,5.79,3.22,16.87,0,4.63-.41,16.57Q912,265,912,272.47q0,11.85.69,14.4a3.69,3.69,0,0,0,1.85,2.37c1,.56,4.37,1.12,10.17,1.69m-35.77-39q-16.57,3.63-21.59,7.85a14.21,14.21,0,0,0-5,11.38q0,5.82,3.21,9.14a10.72,10.72,0,0,0,8.1,3.34q7.44,0,15.27-8.48Z" transform="translate(-15.76 -14.35)"/></g><g class="cls-2"><path class="cls-3" d="M934.29,298.63v-7.7q10.31-.56,11.61-1.65c.88-.73,1.42-2.35,1.6-4.87q.54-9.56.55-33.71,0-11.91-.42-20.52-.17-5.33-.75-6.25a2.63,2.63,0,0,0-1.5-1.14c-.68-.26-4.38-.47-11.11-.67v-7.28c3.4,0,8.73-.73,16-2.18a114.16,114.16,0,0,0,18.22-5l2.55-.86c.89,0,1.34.72,1.34,2.16l-.11.86c-.21,1.75-.3,6.29-.3,13.59l14.63-12.27a15.19,15.19,0,0,1,5.68-3.21,38.67,38.67,0,0,1,10.09-1.13q10,0,16.39,3.45a21.44,21.44,0,0,1,9.34,9.58q3,6.09,3,19,0,5.69-.3,13.16-.51,15.35-.51,26.52,0,6.35,1,8.81a4.11,4.11,0,0,0,2.15,2.27c.91.38,4.4.85,10.43,1.41v7.7l-11.64-.36-7.47-.19-19.51.55-1-1.23a274.81,274.81,0,0,0,2.44-36.88q0-24-2.94-29.6-3.78-7.17-13.8-7.18A19.15,19.15,0,0,0,978.74,227c-3.14,2.18-5.2,4.5-6.13,7-.44,1-.67,4.2-.67,9.57q0,34.32.29,39.3c.19,3.31.73,5.35,1.61,6.1q1.71,1.43,12.67,2v7.7c-10.94-.36-20.21-.55-27.75-.55-4.49,0-12.63.18-24.47.54" transform="translate(-15.76 -14.35)"/></g><g class="cls-2"><path class="cls-3" d="M1063,133.37a27.86,27.86,0,1,0-39.38,39.41A27.86,27.86,0,1,0,1063,133.37m-19.72-2a21.78,21.78,0,1,1-15.34,6.38,21.08,21.08,0,0,1,15.34-6.38" transform="translate(-15.76 -14.35)"/></g><g class="cls-2"><path class="cls-3" d="M1037.69,156.51h2a6,6,0,0,1,3.64,1.08c.69.52,2.44,2.83,6.86,10.86l.24.43h7.73l-4.31-6.94a26.55,26.55,0,0,0-5.17-6.51,8.63,8.63,0,0,0,4.47-2.65,8.79,8.79,0,0,0,2.36-6,8.39,8.39,0,0,0-1.66-4.95,7.7,7.7,0,0,0-4.4-3.06,29,29,0,0,0-7.18-.68h-10.93v30.76h6.37V156.51Zm-.7-12.77h4.55c3.41,0,4.8.53,5.38,1a3,3,0,0,1,1.17,2.52,3,3,0,0,1-1.22,2.59c-.6.45-1.95,1-5,1H1037v-7.08Z" transform="translate(-15.76 -14.35)"/></g></g><g class="cls-4"><path class="cls-5" d="M20.21,347.52H25.8l11.46,20.29,3.62,7.33h.23c-.28-3.57-.7-7.75-.7-11.51V347.52h5.16v34.57H40L28.52,361.71l-3.61-7.23h-.24c.28,3.57.71,7.56.71,11.31v16.3H20.21Z" transform="translate(-15.76 -14.35)"/><path class="cls-5" d="M52.38,369.22c0-8.4,5.73-13.62,11.79-13.62,6.86,0,10.52,4.93,10.52,12.26a14.25,14.25,0,0,1-.23,2.73H57.69c.42,4.93,3.52,7.89,8,7.89a11,11,0,0,0,6.15-1.93L73.71,380A15.67,15.67,0,0,1,65,382.7C58,382.7,52.38,377.72,52.38,369.22ZM70,366.88c0-4.47-2-7.05-5.77-7.05-3.24,0-6.11,2.49-6.62,7.05Z" transform="translate(-15.76 -14.35)"/><path class="cls-5" d="M81.08,373.64V360.58H77.33v-4l4-.28.61-7.14h4.55v7.14H93.2v4.32H86.48v13.1c0,3.1,1.08,4.7,3.76,4.7a7.67,7.67,0,0,0,2.77-.61l1,4a16.57,16.57,0,0,1-5.07.94C83.1,382.7,81.08,379.09,81.08,373.64Z" transform="translate(-15.76 -14.35)"/><path class="cls-5" d="M96,356.26h5.45l3.43,14c.51,2.49.93,4.88,1.4,7.32h.19c.57-2.44,1.08-4.88,1.69-7.32l3.62-14h5l3.71,14c.61,2.49,1.12,4.88,1.73,7.32h.19c.52-2.44.94-4.83,1.5-7.32l3.34-14h5.07l-6.67,25.83h-6.48l-3.29-12.77c-.61-2.44-1.08-4.79-1.64-7.47h-.24c-.51,2.68-1,5.07-1.64,7.51l-3.15,12.73H103Z" transform="translate(-15.76 -14.35)"/><path class="cls-5" d="M135.61,369.22c0-8.64,5.78-13.62,12.17-13.62s12.16,5,12.16,13.62-5.77,13.48-12.16,13.48S135.61,377.77,135.61,369.22Zm18.79,0c0-5.49-2.54-9.16-6.62-9.16s-6.58,3.67-6.58,9.16,2.54,9.07,6.58,9.07S154.4,374.67,154.4,369.22Z" transform="translate(-15.76 -14.35)"/><path class="cls-5" d="M166.28,356.26h4.42l.42,4.65h.14c1.83-3.33,4.56-5.31,7.33-5.31a6.35,6.35,0,0,1,2.91.57l-1,4.69a7.73,7.73,0,0,0-2.59-.42c-2.11,0-4.65,1.46-6.29,5.54v16.11h-5.36Z" transform="translate(-15.76 -14.35)"/><path class="cls-5" d="M185.49,344.66h5.26V368.8h.15L201,356.26h6l-8.79,10.47L208,382.09h-5.87l-7-11.69-4.37,5v6.67h-5.26Z" transform="translate(-15.76 -14.35)"/><path class="cls-5" d="M249.89,382.7a26.49,26.49,0,0,1-8.22-3.8,15.31,15.31,0,0,1-10.29,3.8c-6.62,0-10.8-4.18-10.8-9.63,0-4.74,3.15-7.6,6.67-9.95a17.55,17.55,0,0,1-2.25-7.8,8.14,8.14,0,0,1,8.4-8.45c4.56,0,7.33,2.91,7.33,7.14,0,4.55-3.85,7.42-7.66,10.14a44.86,44.86,0,0,0,8.22,8.6,27.93,27.93,0,0,0,4.65-9.59h5a37.24,37.24,0,0,1-6,12.17,23.62,23.62,0,0,0,6.34,3ZM232,378.48a9.78,9.78,0,0,0,6-2.35,49,49,0,0,1-8.54-9.35c-2.12,1.79-3.71,3.62-3.71,6C225.75,376.17,228.47,378.48,232,378.48Zm-1-17.76c3-1.92,5.45-3.8,5.45-6.67,0-1.88-.9-3.43-3-3.43-2.3,0-3.9,1.93-3.9,4.65A13,13,0,0,0,231,360.72Z" transform="translate(-15.76 -14.35)"/><path class="cls-5" d="M267.22,347.52h20.43v4.56h-15v9.63h12.68v4.6H272.67v11.18h15.5v4.6H267.22Z" transform="translate(-15.76 -14.35)"/><path class="cls-5" d="M294.93,356.26h4.42l.42,3.57h.14c2.39-2.3,5-4.23,8.55-4.23,5.49,0,7.93,3.67,7.93,10.24v16.25H311V366.5c0-4.46-1.31-6.25-4.36-6.25-2.4,0-4,1.22-6.34,3.52v18.32h-5.36Z" transform="translate(-15.76 -14.35)"/><path class="cls-5" d="M322.5,369.22c0-8.4,5.31-13.62,11.09-13.62,3,0,4.83,1.13,7,2.91l-.24-4.27v-9.58h5.4v37.43h-4.41l-.47-2.91h-.14a10.84,10.84,0,0,1-7.52,3.52C326.68,382.7,322.5,377.77,322.5,369.22Zm17.8,5.87V362.46a8.09,8.09,0,0,0-5.68-2.35c-3.62,0-6.53,3.43-6.53,9,0,5.87,2.3,9.11,6.34,9.11C336.59,378.24,338.42,377.25,340.3,375.09Z" transform="translate(-15.76 -14.35)"/><path class="cls-5" d="M353.83,356.26h4.41l.43,2.82h.14c2.25-1.88,5.07-3.48,7.94-3.48,6.57,0,10.23,5.22,10.23,13.15,0,8.88-5.3,13.95-11.13,13.95a10.65,10.65,0,0,1-6.81-2.91l.14,4.42v8.36h-5.35Zm17.56,12.59c0-5.4-1.73-8.74-6.05-8.74-2,0-3.95,1-6.16,3.15v12.63a8.75,8.75,0,0,0,5.64,2.35C368.58,378.24,371.39,374.91,371.39,368.85Z" transform="translate(-15.76 -14.35)"/><path class="cls-5" d="M381.59,369.22c0-8.64,5.77-13.62,12.16-13.62s12.17,5,12.17,13.62-5.78,13.48-12.17,13.48S381.59,377.77,381.59,369.22Zm18.78,0c0-5.49-2.53-9.16-6.62-9.16s-6.57,3.67-6.57,9.16,2.53,9.07,6.57,9.07S400.37,374.67,400.37,369.22Z" transform="translate(-15.76 -14.35)"/><path class="cls-5" d="M411.51,348.23a3.17,3.17,0,0,1,3.43-3.19,3.2,3.2,0,1,1-3.43,3.19Zm.75,8h5.35v25.83h-5.35Z" transform="translate(-15.76 -14.35)"/><path class="cls-5" d="M425.74,356.26h4.41l.43,3.57h.14c2.39-2.3,5-4.23,8.54-4.23,5.5,0,7.94,3.67,7.94,10.24v16.25h-5.4V366.5c0-4.46-1.31-6.25-4.37-6.25-2.39,0-4,1.22-6.34,3.52v18.32h-5.35Z" transform="translate(-15.76 -14.35)"/><path class="cls-5" d="M455.89,373.64V360.58h-3.76v-4l4-.28.61-7.14h4.55v7.14H468v4.32h-6.72v13.1c0,3.1,1.08,4.7,3.76,4.7a7.67,7.67,0,0,0,2.77-.61l1,4a16.57,16.57,0,0,1-5.07.94C457.91,382.7,455.89,379.09,455.89,373.64Z" transform="translate(-15.76 -14.35)"/><path class="cls-5" d="M482.24,377.63l3.2-3.76a13.38,13.38,0,0,0,9.2,4.09c4.18,0,6.53-2,6.53-4.89,0-3.14-2.35-4.13-5.54-5.54l-4.79-2.06c-3.34-1.41-7-4-7-9.07,0-5.45,4.79-9.53,11.37-9.53a14.82,14.82,0,0,1,10.47,4.36l-2.86,3.48a11,11,0,0,0-7.61-3.1c-3.53,0-5.83,1.69-5.83,4.46,0,3,2.77,4.09,5.59,5.22l4.75,2c4.08,1.74,7,4.28,7,9.35,0,5.54-4.6,10.05-12.16,10.05A17.26,17.26,0,0,1,482.24,377.63Z" transform="translate(-15.76 -14.35)"/><path class="cls-5" d="M510.94,369.22c0-8.4,5.73-13.62,11.79-13.62,6.85,0,10.52,4.93,10.52,12.26a14.14,14.14,0,0,1-.24,2.73H516.25c.42,4.93,3.52,7.89,8,7.89a11,11,0,0,0,6.15-1.93l1.88,3.43a15.62,15.62,0,0,1-8.73,2.72C516.53,382.7,510.94,377.72,510.94,369.22Zm17.66-2.34c0-4.47-2-7.05-5.78-7.05-3.24,0-6.1,2.49-6.62,7.05Z" transform="translate(-15.76 -14.35)"/><path class="cls-5" d="M537.48,369.22c0-8.64,6-13.62,12.77-13.62a11.1,11.1,0,0,1,7.56,3l-2.68,3.52a6.78,6.78,0,0,0-4.65-2c-4.32,0-7.42,3.67-7.42,9.16s3,9.07,7.28,9.07a8.89,8.89,0,0,0,5.64-2.35l2.21,3.57a12.6,12.6,0,0,1-8.36,3.19C542.83,382.7,537.48,377.77,537.48,369.22Z" transform="translate(-15.76 -14.35)"/><path class="cls-5" d="M563.26,372.51V356.26h5.4v15.59c0,4.46,1.27,6.2,4.32,6.2,2.4,0,4-1.12,6.2-3.85V356.26h5.4v25.83h-4.41l-.42-3.9h-.14c-2.35,2.73-4.89,4.51-8.46,4.51C565.66,382.7,563.26,379.09,563.26,372.51Z" transform="translate(-15.76 -14.35)"/><path class="cls-5" d="M592.71,356.26h4.42l.42,4.65h.14c1.83-3.33,4.56-5.31,7.33-5.31a6.38,6.38,0,0,1,2.91.57l-1,4.69a7.67,7.67,0,0,0-2.58-.42c-2.11,0-4.65,1.46-6.29,5.54v16.11h-5.36Z" transform="translate(-15.76 -14.35)"/><path class="cls-5" d="M611.17,348.23A3.17,3.17,0,0,1,614.6,345a3.2,3.2,0,1,1-3.43,3.19Zm.75,8h5.36v25.83h-5.36Z" transform="translate(-15.76 -14.35)"/><path class="cls-5" d="M626.25,373.64V360.58h-3.76v-4l4-.28.61-7.14h4.56v7.14h6.71v4.32h-6.71v13.1c0,3.1,1.08,4.7,3.75,4.7a7.73,7.73,0,0,0,2.78-.61l1,4a16.46,16.46,0,0,1-5.07.94C628.27,382.7,626.25,379.09,626.25,373.64Z" transform="translate(-15.76 -14.35)"/><path class="cls-5" d="M655.37,383.64c-2,5.54-4.75,9.25-10.2,9.25a9.21,9.21,0,0,1-3.24-.51l1-4.23a7,7,0,0,0,1.88.38c2.81,0,4.46-2.07,5.4-4.84l.51-1.79-10.24-25.64h5.55l4.79,13.29c.75,2.3,1.55,4.89,2.35,7.28h.23l2-7.28,4.13-13.29h5.26Z" transform="translate(-15.76 -14.35)"/><path class="cls-5" d="M678.15,377.63l3.19-3.76a13.4,13.4,0,0,0,9.2,4.09c4.18,0,6.53-2,6.53-4.89,0-3.14-2.35-4.13-5.54-5.54l-4.79-2.06c-3.33-1.41-7-4-7-9.07,0-5.45,4.79-9.53,11.36-9.53a14.84,14.84,0,0,1,10.48,4.36l-2.87,3.48a11,11,0,0,0-7.61-3.1c-3.52,0-5.82,1.69-5.82,4.46,0,3,2.77,4.09,5.59,5.22l4.74,2c4.09,1.74,7,4.28,7,9.35,0,5.54-4.61,10.05-12.17,10.05A17.24,17.24,0,0,1,678.15,377.63Z" transform="translate(-15.76 -14.35)"/><path class="cls-5" d="M706.84,369.22c0-8.64,5.78-13.62,12.17-13.62s12.16,5,12.16,13.62S725.4,382.7,719,382.7,706.84,377.77,706.84,369.22Zm18.79,0c0-5.49-2.54-9.16-6.62-9.16s-6.58,3.67-6.58,9.16,2.54,9.07,6.58,9.07S725.63,374.67,725.63,369.22Z" transform="translate(-15.76 -14.35)"/><path class="cls-5" d="M737.51,376V344.66h5.36v31.65c0,1.46.66,2,1.31,2a3.56,3.56,0,0,0,.9-.1l.7,4.09a8.84,8.84,0,0,1-2.91.42C739,382.7,737.51,380.21,737.51,376Z" transform="translate(-15.76 -14.35)"/><path class="cls-5" d="M751.18,372.51V356.26h5.4v15.59c0,4.46,1.27,6.2,4.32,6.2,2.4,0,4-1.12,6.2-3.85V356.26h5.4v25.83h-4.41l-.42-3.9h-.14c-2.35,2.73-4.89,4.51-8.46,4.51C753.58,382.7,751.18,379.09,751.18,372.51Z" transform="translate(-15.76 -14.35)"/><path class="cls-5" d="M781.48,373.64V360.58h-3.76v-4l4-.28.61-7.14h4.56v7.14h6.71v4.32h-6.71v13.1c0,3.1,1.08,4.7,3.75,4.7a7.73,7.73,0,0,0,2.78-.61l1,4a16.46,16.46,0,0,1-5.07.94C783.5,382.7,781.48,379.09,781.48,373.64Z" transform="translate(-15.76 -14.35)"/><path class="cls-5" d="M798.48,348.23a3.17,3.17,0,0,1,3.43-3.19,3.2,3.2,0,1,1-3.43,3.19Zm.75,8h5.35v25.83h-5.35Z" transform="translate(-15.76 -14.35)"/><path class="cls-5" d="M810.88,369.22c0-8.64,5.78-13.62,12.16-13.62s12.17,5,12.17,13.62S829.43,382.7,823,382.7,810.88,377.77,810.88,369.22Zm18.79,0c0-5.49-2.54-9.16-6.63-9.16s-6.57,3.67-6.57,9.16,2.53,9.07,6.57,9.07S829.67,374.67,829.67,369.22Z" transform="translate(-15.76 -14.35)"/><path class="cls-5" d="M841.55,356.26H846l.43,3.57h.14c2.39-2.3,5-4.23,8.55-4.23,5.49,0,7.93,3.67,7.93,10.24v16.25h-5.4V366.5c0-4.46-1.31-6.25-4.36-6.25-2.4,0-4,1.22-6.35,3.52v18.32h-5.35Z" transform="translate(-15.76 -14.35)"/><path class="cls-5" d="M881.9,347.52h10.47c7.7,0,13.2,2.63,13.2,10.43,0,7.56-5.5,11-13,11h-5.22v13.1H881.9ZM892,364.62c5.54,0,8.17-2.11,8.17-6.67s-2.86-6.06-8.36-6.06h-4.51v12.73Z" transform="translate(-15.76 -14.35)"/><path class="cls-5" d="M911.81,356.26h4.42l.42,4.65h.14c1.83-3.33,4.56-5.31,7.33-5.31a6.35,6.35,0,0,1,2.91.57l-1,4.69a7.67,7.67,0,0,0-2.58-.42c-2.11,0-4.65,1.46-6.29,5.54v16.11h-5.36Z" transform="translate(-15.76 -14.35)"/><path class="cls-5" d="M928.68,369.22c0-8.64,5.77-13.62,12.16-13.62s12.16,5,12.16,13.62-5.77,13.48-12.16,13.48S928.68,377.77,928.68,369.22Zm18.78,0c0-5.49-2.53-9.16-6.62-9.16s-6.57,3.67-6.57,9.16,2.53,9.07,6.57,9.07S947.46,374.67,947.46,369.22Z" transform="translate(-15.76 -14.35)"/><path class="cls-5" d="M955.59,356.26h5.54l4.42,13.9c.7,2.54,1.5,5.17,2.25,7.71H968c.75-2.54,1.55-5.17,2.25-7.71l4.42-13.9h5.26L971,382.09h-6.25Z" transform="translate(-15.76 -14.35)"/><path class="cls-5" d="M983.91,348.23a3.17,3.17,0,0,1,3.43-3.19,3.2,3.2,0,1,1-3.43,3.19Zm.75,8H990v25.83h-5.36Z" transform="translate(-15.76 -14.35)"/><path class="cls-5" d="M996.41,369.22c0-8.4,5.3-13.62,11.08-13.62,3,0,4.84,1.13,7,2.91l-.23-4.27v-9.58h5.4v37.43h-4.42l-.47-2.91h-.14a10.82,10.82,0,0,1-7.51,3.52C1000.59,382.7,996.41,377.77,996.41,369.22Zm17.8,5.87V362.46a8.11,8.11,0,0,0-5.69-2.35c-3.61,0-6.52,3.43-6.52,9,0,5.87,2.3,9.11,6.33,9.11C1010.5,378.24,1012.33,377.25,1014.21,375.09Z" transform="translate(-15.76 -14.35)"/><path class="cls-5" d="M1025.9,369.22c0-8.4,5.73-13.62,11.79-13.62,6.86,0,10.52,4.93,10.52,12.26a14.25,14.25,0,0,1-.23,2.73h-16.77c.42,4.93,3.52,7.89,8,7.89a11,11,0,0,0,6.16-1.93l1.87,3.43a15.62,15.62,0,0,1-8.73,2.72C1031.49,382.7,1025.9,377.72,1025.9,369.22Zm17.66-2.34c0-4.47-2-7.05-5.78-7.05-3.24,0-6.1,2.49-6.62,7.05Z" transform="translate(-15.76 -14.35)"/><path class="cls-5" d="M1054.27,356.26h4.42l.42,4.65h.14c1.83-3.33,4.55-5.31,7.33-5.31a6.38,6.38,0,0,1,2.91.57l-1,4.69a7.67,7.67,0,0,0-2.58-.42c-2.12,0-4.65,1.46-6.3,5.54v16.11h-5.35Z" transform="translate(-15.76 -14.35)"/></g></svg>